<svg xmlns="http://www.w3.org/2000/svg" viewBox="0 0 1200 400" width="1200" height="400">
  <!-- Fundo verde oliva escuro -->
  <rect width="1200" height="400" fill="#153d01"/>
  
  <!-- Logo aumentada (reposicionada e escalada) -->
  <g transform="translate(100, 80) scale(4)">
    <svg xmlns="http://www.w3.org/2000/svg" xmlns:xlink="http://www.w3.org/1999/xlink" width="48" zoomAndPan="magnify" viewBox="0 0 36 36.000001" height="48" preserveAspectRatio="xMidYMid meet" version="1.0">
      <!-- Conteúdo do favicon original aqui -->
      <defs>
        <clipPath id="clip1">
          <path d="M 2.667969 2.667969 L 33.332031 2.667969 L 33.332031 33.332031 L 2.667969 33.332031 Z M 2.667969 2.667969 " clip-rule="evenodd"/>
        </clipPath>
      </defs>
      <g clip-path="url(#clip1)">
        <path fill="#ffffff" d="M 2.667969 2.667969 L 33.332031 2.667969 L 33.332031 33.332031 L 2.667969 33.332031 Z M 2.667969 2.667969 " fill-rule="evenodd"/>
        <path fill="#6366f1" d="M 10.09375 8.433594 C 9.832031 8.433594 9.617188 8.648438 9.617188 8.910156 L 9.617188 27.089844 C 9.617188 27.351563 9.832031 27.566406 10.09375 27.566406 L 25.90625 27.566406 C 26.167969 27.566406 26.382812 27.351563 26.382812 27.089844 L 26.382812 8.910156 C 26.382812 8.648438 26.167969 8.433594 25.90625 8.433594 Z M 10.09375 8.433594 " fill-rule="evenodd"/>
        <path fill="#ffffff" d="M 12.890625 11.230469 L 23.109375 11.230469 C 23.371094 11.230469 23.585938 11.445312 23.585938 11.707031 L 23.585938 24.769531 C 23.585938 25.03125 23.371094 25.246094 23.109375 25.246094 L 12.890625 25.246094 C 12.628906 25.246094 12.414062 25.03125 12.414062 24.769531 L 12.414062 11.707031 C 12.414062 11.445312 12.628906 11.230469 12.890625 11.230469 Z M 12.890625 11.230469 " fill-rule="evenodd"/>
      </g>
    </svg>
  </g>
  
  <!-- Título em texto grande -->
  <text x="550" y="140" font-family="Arial, sans-serif" font-size="72" font-weight="bold" fill="#ffffff" text-anchor="middle">
    ET Education
  </text>
  
  <!-- Subtítulo -->
  <text x="550" y="220" font-family="Arial, sans-serif" font-size="36" fill="#e8f5e9" text-anchor="middle" opacity="0.9">
    Learn Through Gaming
  </text>
  
  <!-- Linha decorativa -->
  <line x1="300" y1="260" x2="800" y2="260" stroke="#b3e5fc" stroke-width="3" opacity="0.6"/>
</svg>
